<svg xmlns="http://www.w3.org/2000/svg" viewBox="0 0 32 32" width="32" height="32">
  <!-- Book body -->
  <path d="M5 6a2 2 0 0 1 2-2h14a2 2 0 0 1 2 2v20a2 2 0 0 1-2 2H7a2 2 0 0 1-2-2V6z" fill="#b8942e" stroke="#8b6914" stroke-width="0.5"/>
  <!-- Book spine highlight -->
  <rect x="5" y="4" width="3" height="24" rx="1" fill="#8b6914" opacity="0.4"/>
  <!-- Book pages -->
  <rect x="9" y="6" width="12" height="18" rx="1" fill="#fdfbf7"/>
  <!-- Page lines -->
  <line x1="11" y1="10" x2="19" y2="10" stroke="#d4b44a" stroke-width="0.5" opacity="0.5"/>
  <line x1="11" y1="13" x2="19" y2="13" stroke="#d4b44a" stroke-width="0.5" opacity="0.5"/>
  <line x1="11" y1="16" x2="17" y2="16" stroke="#d4b44a" stroke-width="0.5" opacity="0.5"/>
  <!-- Quill pen -->
  <path d="M22 3c-1.5 2-2 4-2.5 7l1 0.3c1.5-2.5 3-4 5.5-5.3C24.5 3.5 23 3 22 3z" fill="#fdfbf7" stroke="#8b6914" stroke-width="0.5"/>
  <line x1="19.5" y1="10" x2="18" y2="20" stroke="#8b6914" stroke-width="0.8" stroke-linecap="round"/>
  <!-- Ink dot -->
  <circle cx="17.8" cy="20.5" r="0.8" fill="#27272a"/>
</svg>
